<svg width="121.000000" height="13.125000" viewBox="0 0 121 13.125" fill="none" xmlns="http://www.w3.org/2000/svg" xmlns:xlink="http://www.w3.org/1999/xlink">
	<desc>
			Created with Pixso.
	</desc>
	<defs/>
	<path id="XMLID_243_" d="M9.42 0.65L9.42 7.28C9.42 9.5 8.46 10.41 6.15 10.41C3.84 10.41 2.88 9.5 2.88 7.28L2.88 0.36L0.67 0.36C0.52 0.36 0.38 0.5 0.38 0.65L0.38 7.38C0.38 11.08 2.74 12.38 6.15 12.38C9.56 12.38 11.92 11.08 11.92 7.38L11.92 0.36L9.71 0.36C9.56 0.36 9.42 0.46 9.42 0.65Z" fill="#000000" fill-opacity="1.000000" fill-rule="nonzero"/>
	<path id="XMLID_242_" d="M41.58 2.28C41.77 2.28 41.87 2.24 41.92 2.09L42.54 0.5C42.59 0.41 42.54 0.36 42.45 0.36L33.5 0.36C32.69 0.36 32.35 0.6 32.35 1.18L32.35 11.47C32.35 11.95 32.59 12.19 33.22 12.19L41.53 12.19C41.73 12.19 41.82 12.14 41.87 12L42.5 10.41C42.54 10.31 42.5 10.26 42.4 10.26L34.8 10.26L34.8 8.15C34.8 7.43 35.19 7.09 36.29 7.09L39.61 7.09C39.8 7.09 39.9 7.04 39.95 6.9L40.57 5.36C40.62 5.26 40.57 5.22 40.48 5.22L34.85 5.22L34.85 2.24L41.58 2.24L41.58 2.28Z" fill="#000000" fill-opacity="1.000000" fill-rule="nonzero"/>
	<path id="XMLID_238_" d="M27.2115 3.34616C27.2115 4.5 26.8269 5.41345 25.8654 5.94232C27.2115 6.27884 27.7885 7.48077 27.7404 8.92307C27.7404 11.2788 26.1057 12.1923 23.75 12.1923L17.5481 12.1923C16.9231 12.1923 16.6827 11.9519 16.6827 11.4712L16.6827 1.18271C16.6827 0.605774 17.0192 0.365387 17.8365 0.365387L22.8846 0.365387C25.0961 0.365387 27.2115 0.75 27.2115 3.34616ZM19.1827 2.24039L23.0769 2.24039C24.375 2.24039 24.7596 2.72116 24.7596 3.73077C24.7596 4.74039 24.375 5.22116 23.0769 5.22116L19.1827 5.22116L19.1827 2.24039ZM19.1827 10.2692L23.5577 10.2692C24.9519 10.2692 25.3365 9.78845 25.3365 8.68271C25.3365 7.57693 24.9519 7.04807 23.5577 7.04807L20.6731 7.04807C19.5673 7.04807 19.1827 7.38461 19.1827 8.10577L19.1827 10.2692Z" clip-rule="evenodd" fill="#000000" fill-opacity="1.000000" fill-rule="evenodd"/>
	<path id="XMLID_235_" d="M58.0288 12L55.3846 7.43271C56.6827 7.09616 57.7885 6.23077 57.7885 4.01923C57.7885 1.13461 56.0096 0.365387 53.0769 0.365387L48.0288 0.365387C47.2115 0.365387 46.875 0.605774 46.875 1.18271L46.875 11.9038C46.875 12.0481 47.0192 12.1923 47.1635 12.1923L49.3269 12.1923L49.3269 8.73077C49.3269 8.00961 49.7115 7.67307 50.8173 7.67307L52.9808 7.67307L55.3846 12C55.4808 12.1442 55.5288 12.1923 55.7212 12.1923L57.9808 12.1923C58.0769 12.1923 58.0769 12.0481 58.0288 12ZM49.2788 5.84616L53.4135 5.84616C54.9519 5.84616 55.2885 5.26923 55.2885 4.01923C55.2885 2.81732 54.9519 2.24039 53.4135 2.24039L49.2788 2.24039L49.2788 5.84616Z" clip-rule="evenodd" fill="#000000" fill-opacity="1.000000" fill-rule="evenodd"/>
	<path id="XMLID_232_" d="M76.44 11.13L76.39 12.19L67.64 12.19L67.64 0.36L76.05 0.36L76.1 1.47L68.84 1.47L68.84 5.55L75.09 5.55L75.09 6.51L68.84 6.51L68.84 11.13L76.44 11.13Z" fill="#57AD56" fill-opacity="1.000000" fill-rule="nonzero"/>
	<path id="XMLID_232_" d="M76.39 12.19L67.64 12.19L67.64 0.36L76.05 0.36L76.1 1.47L68.84 1.47L68.84 5.55L75.09 5.55L75.09 6.51L68.84 6.51L68.84 11.13L76.44 11.13L76.39 12.19Z" stroke="#57AD56" stroke-opacity="1.000000" stroke-width="0.250000"/>
	<mask id="mask_0_1200" fill="white">
		<path id="XMLID_229_" d="M90.6731 9.11539L83.7019 9.11539L82.3557 12.1923L81.0577 12.1923L86.5385 0.365387L87.9327 0.365387L93.3654 12.1923L92.0192 12.1923L90.6731 9.11539ZM84.1346 8.10577L86.6827 2.38461L87.1635 1.18271L87.2115 1.18271L87.6923 2.38461L90.1923 8.10577L84.1346 8.10577Z" clip-rule="evenodd" fill="" fill-opacity="1.000000" fill-rule="evenodd"/>
	</mask>
	<path id="XMLID_229_" d="M90.6731 9.11539L83.7019 9.11539L82.3557 12.1923L81.0577 12.1923L86.5385 0.365387L87.9327 0.365387L93.3654 12.1923L92.0192 12.1923L90.6731 9.11539ZM84.1346 8.10577L86.6827 2.38461L87.1635 1.18271L87.2115 1.18271L87.6923 2.38461L90.1923 8.10577L84.1346 8.10577Z" clip-rule="evenodd" fill="#57AD56" fill-opacity="1.000000" fill-rule="evenodd" mask="url(#mask_0_1200)"/>
	<path id="XMLID_229_" d="M90.6731 9.24039L83.7019 9.24039L83.7019 9.11539L83.8164 9.1655L82.4375 12.3173L80.862 12.3173L86.4586 0.240387L88.0128 0.240387L93.5603 12.3173L91.9375 12.3173L90.5585 9.1655L90.6731 9.11539L90.6731 9.24039ZM90.7548 8.99039L92.1337 12.1422L92.0192 12.1923L92.0192 12.0673L93.3654 12.0673L93.3654 12.1923L93.2518 12.2445L87.8191 0.417572L87.9327 0.365387L87.9327 0.490387L86.5385 0.490387L86.5385 0.365387L86.6519 0.417938L81.1711 12.2449L81.0577 12.1923L81.0577 12.0673L82.3557 12.0673L82.3557 12.1923L82.2412 12.1422L83.6201 8.99039L90.6731 8.99039L90.7548 8.99039ZM84.0204 8.0549L86.5685 2.33377L86.6827 2.38461L86.5666 2.3382L87.0788 1.05771L87.2961 1.05771L87.8083 2.3382L87.6923 2.38461L87.8068 2.33456L90.3833 8.23077L83.9421 8.23077L84.0204 8.0549ZM84.2488 8.15662L84.1346 8.10577L84.1346 7.98077L90.1923 7.98077L90.1923 8.10577L90.0778 8.15582L87.577 2.43286L87.0955 1.22913L87.2115 1.18271L87.2115 1.30771L87.1635 1.30771L87.1635 1.18271L87.2795 1.22913L86.7979 2.43326L84.2488 8.15662Z" fill="#57AD56" fill-opacity="1.000000" fill-rule="nonzero"/>
	<path id="XMLID_227_" d="M102.01 1.47L102.01 12.19L100.81 12.19L100.81 1.47L96.39 1.47L96.44 0.36L106.49 0.36L106.49 1.47L102.01 1.47Z" fill="#57AD56" fill-opacity="1.000000" fill-rule="nonzero"/>
	<path id="XMLID_227_" d="M102.01 12.19L100.81 12.19L100.81 1.47L96.39 1.47L96.44 0.36L106.49 0.36L106.49 1.47L102.01 1.47L102.01 12.19Z" stroke="#57AD56" stroke-opacity="1.000000" stroke-width="0.250000"/>
	<path id="XMLID_225_" d="M115.04 12.43C113.41 12.43 112.11 12.04 111.05 11.42L111.25 10.36C112.35 10.99 113.6 11.37 115.09 11.37C117.3 11.37 118.46 10.36 118.46 8.92C118.46 5.79 111.25 7.43 111.25 3.39C111.25 1.66 112.54 0.12 115.57 0.12C116.97 0.12 118.22 0.36 119.23 0.84L119.03 1.85C117.93 1.42 116.87 1.18 115.62 1.18C113.26 1.18 112.4 2.24 112.4 3.29C112.4 6.27 119.61 4.59 119.61 8.82C119.56 10.94 118.02 12.43 115.04 12.43Z" fill="#57AD56" fill-opacity="1.000000" fill-rule="nonzero"/>
	<path id="XMLID_225_" d="M111.05 11.42L111.25 10.36C112.35 10.99 113.6 11.37 115.09 11.37C117.3 11.37 118.46 10.36 118.46 8.92C118.46 5.79 111.25 7.43 111.25 3.39C111.25 1.66 112.54 0.12 115.57 0.12C116.97 0.12 118.22 0.36 119.23 0.84L119.03 1.85C117.93 1.42 116.87 1.18 115.62 1.18C113.26 1.18 112.4 2.24 112.4 3.29C112.4 6.27 119.61 4.59 119.61 8.82C119.56 10.94 118.02 12.43 115.04 12.43C113.41 12.43 112.11 12.04 111.05 11.42Z" stroke="#57AD56" stroke-opacity="1.000000" stroke-width="0.250000"/>
</svg>
